<svg width="20" height="20" viewBox="0 0 20 20" fill="none" xmlns="http://www.w3.org/2000/svg">
<path d="M17.7538 7.92443C17.7538 8.86671 16.9898 9.63077 16.0475 9.63077H3.70634C2.76406 9.63077 2 8.86671 2 7.92443V3.70634C2 2.76406 2.76406 2 3.70634 2H16.0478C16.99 2 17.7541 2.76406 17.7541 3.70634L17.7538 7.92443ZM16.7692 3.70634C16.7692 3.30782 16.446 2.98462 16.0475 2.98462H3.70634C3.30782 2.98462 2.98462 3.30782 2.98462 3.70634V7.92468C2.98462 8.3232 3.30782 8.6464 3.70634 8.6464H16.0478C16.4463 8.6464 16.7695 8.3232 16.7695 7.92468L16.7692 3.70634Z" fill="white"/>
<path d="M12.5846 16.2936C12.5846 17.2358 11.8206 17.9999 10.8783 17.9999H3.70634C2.76406 17.9999 2 17.2358 2 16.2936V12.0755C2 11.1332 2.76406 10.3691 3.70634 10.3691H10.8785C11.8208 10.3691 12.5849 11.1332 12.5849 12.0755L12.5846 16.2936ZM11.6 12.0755C11.6 11.6769 11.2768 11.3538 10.8783 11.3538H3.70634C3.30782 11.3538 2.98462 11.6769 2.98462 12.0755V16.2938C2.98462 16.6923 3.30782 17.0155 3.70634 17.0155H10.8785C11.277 17.0155 11.6002 16.6923 11.6002 16.2938L11.6 12.0755Z" fill="white"/>
<path d="M17.9999 16.2936C17.9999 17.2358 17.2359 17.9999 16.2936 17.9999H15.0291C14.0868 17.9999 13.3228 17.2358 13.3228 16.2936V12.0755C13.3228 11.1332 14.0868 10.3691 15.0291 10.3691H16.2936C17.2359 10.3691 17.9999 11.1332 17.9999 12.0755V16.2936ZM17.0153 12.0755C17.0153 11.6769 16.6921 11.3538 16.2936 11.3538H15.0291C14.6306 11.3538 14.3074 11.6769 14.3074 12.0755V16.2938C14.3074 16.6923 14.6306 17.0155 15.0291 17.0155H16.2936C16.6921 17.0155 17.0153 16.6923 17.0153 16.2938V12.0755Z" fill="white"/>
</svg>
