<svg width="20" height="20" viewBox="0 0 20 20" fill="none" xmlns="http://www.w3.org/2000/svg">
<g clip-path="url(#clip0_78_457)">
<path d="M16.0631 10.2428C16.1971 10.2428 16.3055 10.1342 16.3055 10.0004C16.3055 9.86662 16.1971 9.75801 16.0631 9.75801H15.3297C15.3157 9.44966 15.2749 9.14832 15.2107 8.85571L15.9193 8.66588C16.0485 8.63145 16.1254 8.49835 16.0907 8.36915C16.0563 8.23946 15.9232 8.1631 15.794 8.1975L15.0858 8.38733C14.993 8.09545 14.8752 7.81497 14.7355 7.54733L15.3722 7.1798C15.4883 7.1129 15.528 6.96477 15.4611 6.84866C15.3937 6.73256 15.2454 6.69304 15.1297 6.75994L14.4924 7.1277C14.328 6.8717 14.1436 6.63 13.9389 6.40625L14.4592 5.88599C14.5537 5.79145 14.5537 5.63798 14.4592 5.54321C14.3644 5.44866 14.211 5.44866 14.1164 5.54321L13.5962 6.06347C13.3724 5.85909 13.1305 5.67437 12.8745 5.51L13.2422 4.8729C13.3094 4.75702 13.2696 4.60866 13.1535 4.54151C13.0379 4.4746 12.8893 4.51435 12.8223 4.63048L12.4548 5.26685C12.1872 5.12744 11.9067 5.00963 11.6148 4.91679L11.8049 4.20915C11.8395 4.07969 11.7629 3.94685 11.6335 3.91219C11.5047 3.87776 11.3712 3.95437 11.3365 4.08335L11.1464 4.79196C10.8538 4.72773 10.5528 4.68724 10.2441 4.67318L10.2444 3.93986C10.2444 3.80605 10.136 3.69744 10.002 3.69744C9.86818 3.69744 9.75957 3.80605 9.75957 3.93986L9.75934 4.67318C9.45122 4.68724 9.14988 4.72798 8.85727 4.79222L8.66744 4.08361C8.63278 3.9544 8.50017 3.8773 8.37071 3.91222C8.24125 3.94665 8.1644 4.07974 8.19932 4.20895L8.38889 4.9173C8.09701 5.01014 7.81653 5.12795 7.54889 5.26736L7.18162 4.63074C7.11471 4.51463 6.96659 4.47486 6.85071 4.54176C6.7346 4.60866 6.69483 4.75705 6.76173 4.87293L7.12949 5.51051C6.87349 5.67511 6.63179 5.8596 6.40804 6.0642L5.88804 5.54372C5.79326 5.44892 5.6398 5.44918 5.545 5.54347C5.45045 5.63824 5.45045 5.7917 5.545 5.88651L6.065 6.40699C5.86088 6.63074 5.67613 6.8727 5.51201 7.12869L4.87468 6.7602C4.7588 6.69304 4.61045 6.73281 4.54352 6.84892C4.47662 6.9648 4.51613 7.11293 4.63201 7.18008L5.26886 7.5481C5.12946 7.81574 5.01164 8.09622 4.9188 8.3881L4.21068 8.19756C4.08196 8.16338 3.94861 8.23949 3.91372 8.36895C3.87906 8.49815 3.95565 8.63125 4.08488 8.66591L4.79397 8.85645C4.72974 9.14906 4.68926 9.45014 4.6752 9.75852L3.94162 9.75804H3.94139C3.80758 9.75804 3.6992 9.86639 3.69897 10.0002C3.69897 10.1343 3.80733 10.2429 3.94116 10.2429L4.67522 10.2434C4.68929 10.5517 4.73003 10.8531 4.79426 11.1457L4.08542 11.3348C3.95596 11.3694 3.87912 11.5023 3.91355 11.6317C3.94264 11.7401 4.04057 11.8116 4.14772 11.8116C4.16858 11.8116 4.18943 11.8089 4.21028 11.8034L4.91937 11.614C5.01221 11.9057 5.13003 12.1862 5.26943 12.4538L4.63258 12.8206C4.51647 12.8875 4.4767 13.0359 4.54338 13.1517C4.58824 13.2295 4.66968 13.2732 4.7538 13.2732C4.79477 13.2732 4.83622 13.2628 4.87454 13.2409L5.51261 12.8732C5.67699 13.1292 5.86145 13.3709 6.06608 13.5946L5.54534 14.1144C5.45054 14.2089 5.45031 14.3624 5.54486 14.4572C5.59238 14.5047 5.65443 14.5284 5.7165 14.5284C5.77858 14.5284 5.84062 14.5049 5.8879 14.4576L6.40886 13.9376C6.63261 14.1418 6.87432 14.3265 7.13031 14.4906L6.76182 15.1277C6.69491 15.2436 6.73443 15.3917 6.85054 15.4589C6.88861 15.4809 6.93028 15.4913 6.9715 15.4913C7.05514 15.4913 7.13659 15.4482 7.18167 15.3704L7.54968 14.7337C7.81733 14.8732 8.09781 14.991 8.38968 15.0838L8.19937 15.7914C8.16446 15.9209 8.24108 16.0537 8.37054 16.0887C8.39139 16.0942 8.41272 16.0969 8.43358 16.0969C8.54048 16.0969 8.63843 16.0256 8.66753 15.9175L8.85807 15.2087C9.15068 15.2732 9.45201 15.3136 9.76014 15.3277L9.75966 16.0608C9.75966 16.1949 9.86801 16.3035 10.0018 16.3035H10.0021C10.1359 16.3035 10.2445 16.1951 10.2445 16.0613L10.245 15.3277C10.5531 15.3136 10.8547 15.2732 11.1473 15.2087L11.3366 15.9173C11.3655 16.0256 11.4634 16.0972 11.5705 16.0972C11.5914 16.0972 11.6125 16.0945 11.6333 16.0889C11.7628 16.0543 11.8394 15.9214 11.805 15.792L11.6156 15.0838C11.9073 14.991 12.188 14.8732 12.4554 14.7338L12.8224 15.3704C12.867 15.4482 12.9487 15.4916 13.0326 15.4916C13.0735 15.4916 13.1152 15.4812 13.1533 15.4594C13.2694 15.3925 13.3094 15.2441 13.2423 15.1282L12.875 14.4906C13.1308 14.3262 13.3727 14.1418 13.5964 13.9372L14.116 14.4574C14.1632 14.5049 14.2255 14.5287 14.2876 14.5287C14.3497 14.5287 14.4115 14.5049 14.459 14.4577C14.5535 14.3631 14.5535 14.2097 14.4593 14.1149L13.9393 13.5944C14.1439 13.3707 14.3283 13.1289 14.4927 12.873L15.1291 13.241C15.1676 13.263 15.2093 13.2734 15.2503 13.2734C15.3342 13.2734 15.4157 13.2301 15.4605 13.1522C15.5276 13.0363 15.4879 12.8882 15.372 12.8211L14.7359 12.4533C14.8753 12.1857 14.9931 11.9049 15.0859 11.6133L15.7933 11.8034C15.8144 11.8092 15.8357 11.8118 15.8564 11.8118C15.9633 11.8118 16.0612 11.7406 16.0903 11.6322C16.1252 11.503 16.0484 11.3699 15.9191 11.3353L15.2108 11.1449C15.2753 10.8523 15.3158 10.551 15.3298 10.2429H16.0631V10.2428ZM10.0025 14.8489C7.329 14.8489 5.15397 12.6739 5.15397 10.0004C5.15397 7.32696 7.329 5.15193 10.0025 5.15193C12.6759 5.15193 14.851 7.32696 14.851 10.0004C14.851 12.6739 12.6759 14.8489 10.0025 14.8489Z" fill="#C1C9E5" stroke="#C1C9E5" stroke-width="0.125"/>
<path d="M12.9092 9.27273C12.5936 9.27273 12.3272 9.47588 12.2268 9.75758H11.4329C11.3301 9.14983 10.8503 8.67006 10.2425 8.56727V7.77358C10.524 7.67298 10.7274 7.40656 10.7274 7.09091C10.7274 6.68994 10.4011 6.36364 10.0001 6.36364C9.59917 6.36364 9.27286 6.68994 9.27286 7.09091C9.27286 7.40653 9.47601 7.67298 9.75772 7.77332V8.56727C9.14996 8.67006 8.67019 9.14983 8.56741 9.75758H7.77371C7.67312 9.47588 7.4067 9.27273 7.09104 9.27273C6.69008 9.27273 6.36377 9.59903 6.36377 10C6.36377 10.401 6.69008 10.7273 7.09104 10.7273C7.40667 10.7273 7.67312 10.5241 7.77371 10.2424H8.56741C8.67019 10.8502 9.14996 11.3299 9.75772 11.4327V12.2264C9.47601 12.327 9.27286 12.5934 9.27286 12.9091C9.27286 13.3101 9.59917 13.6364 10.0001 13.6364C10.4011 13.6364 10.7274 13.3101 10.7274 12.9091C10.7274 12.5935 10.524 12.327 10.2425 12.2264V11.4327C10.8503 11.3299 11.3301 10.8502 11.4329 10.2424H12.2268C12.3272 10.5241 12.5936 10.7273 12.9092 10.7273C13.3102 10.7273 13.6365 10.401 13.6365 10C13.6365 9.59903 13.3102 9.27273 12.9092 9.27273ZM7.09104 10.2424C6.95746 10.2424 6.84863 10.1336 6.84863 10C6.84863 9.86642 6.95746 9.75758 7.09104 9.75758C7.22462 9.75758 7.33346 9.86642 7.33346 10C7.33346 10.1336 7.22462 10.2424 7.09104 10.2424ZM10.0001 6.84849C10.1337 6.84849 10.2425 6.95733 10.2425 7.09091C10.2425 7.22449 10.1337 7.33332 10.0001 7.33332C9.86655 7.33332 9.75772 7.22449 9.75772 7.09091C9.75772 6.95733 9.86655 6.84849 10.0001 6.84849ZM10.0001 13.1515C9.86655 13.1515 9.75772 13.0427 9.75772 12.9091C9.75772 12.7755 9.86655 12.6667 10.0001 12.6667C10.1337 12.6667 10.2425 12.7755 10.2425 12.9091C10.2425 13.0427 10.1337 13.1515 10.0001 13.1515ZM10.0001 10.9697C9.46533 10.9697 9.03045 10.5348 9.03045 10C9.03045 9.4652 9.46536 9.03031 10.0001 9.03031C10.5349 9.03031 10.9698 9.46523 10.9698 10C10.9698 10.5348 10.5349 10.9697 10.0001 10.9697ZM12.9092 10.2424C12.7754 10.2424 12.6668 10.1336 12.6668 10C12.6668 9.86642 12.7754 9.75758 12.9092 9.75758C13.043 9.75758 13.1516 9.86642 13.1516 10C13.1516 10.1336 13.043 10.2424 12.9092 10.2424Z" fill="#C1C9E5" stroke="#C1C9E5" stroke-width="0.125"/>
<path d="M10 2.72727C5.98985 2.72727 2.72729 5.98983 2.72729 10C2.72729 14.0102 5.98985 17.2727 10 17.2727C14.0102 17.2727 17.2727 14.0102 17.2727 10C17.2727 5.98983 14.0102 2.72727 10 2.72727ZM10 16.7879C6.25724 16.7879 3.21215 13.7428 3.21215 10C3.21215 6.25722 6.25724 3.21213 10 3.21213C13.7428 3.21213 16.7879 6.25722 16.7879 10C16.7879 13.7428 13.7428 16.7879 10 16.7879Z" fill="#C1C9E5" stroke="#C1C9E5" stroke-width="0.125"/>
</g>
<defs>
<clipPath id="clip0_78_457">
<rect width="16" height="16" fill="white" transform="translate(2 2)"/>
</clipPath>
</defs>
</svg>
