<svg width="20" height="20" viewBox="0 0 20 20" fill="none" xmlns="http://www.w3.org/2000/svg">
<path d="M3.61715 7.89555C1.81179 7.17341 0.909119 6.81234 0.909119 6.36366C0.909119 5.91498 1.81179 5.5539 3.61715 4.83177L6.1703 3.8105C7.97565 3.08837 8.8783 2.72729 10 2.72729C11.1218 2.72729 12.0244 3.08837 13.8298 3.8105L16.3829 4.83177C18.1883 5.5539 19.0909 5.91498 19.0909 6.36366C19.0909 6.81234 18.1883 7.17341 16.3829 7.89555L13.8298 8.91684C12.0244 9.63893 11.1218 10 10 10C8.8783 10 7.97565 9.63893 6.1703 8.91684L3.61715 7.89555Z" stroke="#C1C9E5" stroke-width="1.2"/>
<path d="M19.0909 10C19.0909 10 18.1883 10.8097 16.3829 11.5319L13.8298 12.5532C12.0244 13.2753 11.1218 13.6364 10 13.6364C8.8783 13.6364 7.97565 13.2753 6.1703 12.5532L3.61715 11.5319C1.81179 10.8097 0.909119 10 0.909119 10" stroke="#C1C9E5" stroke-width="1.2" stroke-linecap="round"/>
<path d="M19.0909 13.6365C19.0909 13.6365 18.1883 14.4462 16.3829 15.1684L13.8298 16.1897C12.0244 16.9117 11.1218 17.2728 10 17.2728C8.8783 17.2728 7.97565 16.9117 6.1703 16.1897L3.61715 15.1684C1.81179 14.4462 0.909119 13.6365 0.909119 13.6365" stroke="#C1C9E5" stroke-width="1.2" stroke-linecap="round"/>
</svg>
