<svg width="22" height="18" viewBox="0 0 22 18" fill="none" xmlns="http://www.w3.org/2000/svg">
<path d="M15.8004 17.3996H6.20039C3.32039 17.3996 1.40039 15.9173 1.40039 12.4584V5.54079C1.40039 2.08196 3.32039 0.599609 6.20039 0.599609H15.8004C18.6804 0.599609 20.6004 2.08196 20.6004 5.54079V12.4584C20.6004 15.9173 18.6804 17.3996 15.8004 17.3996Z" stroke="white" stroke-width="1.2" stroke-miterlimit="10" stroke-linecap="round" stroke-linejoin="round"/>
<path d="M10.9997 11.6663C12.4724 11.6663 13.6663 10.4724 13.6663 8.99967C13.6663 7.52692 12.4724 6.33301 10.9997 6.33301C9.52692 6.33301 8.33301 7.52692 8.33301 8.99967C8.33301 10.4724 9.52692 11.6663 10.9997 11.6663Z" stroke="white" stroke-width="1.2" stroke-miterlimit="10" stroke-linecap="round" stroke-linejoin="round"/>
<path d="M5 6.59961V11.9329" stroke="white" stroke-width="1.2" stroke-miterlimit="10" stroke-linecap="round" stroke-linejoin="round"/>
<path d="M17 6.59961V11.9329" stroke="white" stroke-width="1.2" stroke-miterlimit="10" stroke-linecap="round" stroke-linejoin="round"/>
</svg>
